<?xml version="1.0" encoding="utf-8"?>
<!-- Generator: Adobe Illustrator 22.1.0, SVG Export Plug-In . SVG Version: 6.00 Build 0)  -->
<svg version="1.1" id="Layer_1" xmlns="http://www.w3.org/2000/svg" xmlns:xlink="http://www.w3.org/1999/xlink" x="0px" y="0px"
	 viewBox="0 0 833.6 265.3" style="enable-background:new 0 0 833.6 265.3;" xml:space="preserve">
<style type="text/css">
	.st0{fill:#060707;}
	.st1{fill:#FFFFFF;}
	.st2{fill:#1D4A88;}
	.st3{fill:#000101;}
</style>
<g>
	<g id="Mozilla">
		<g id="XMLID_29_">
			<rect x="139.7" y="153.9" class="st0" width="389.7" height="111.4"/>
		</g>
		<g id="XMLID_31_">
			<path class="st1" d="M511.9,233.9c-0.8,0.2-1.4,0.3-2,0.3c-2.3,0-3.4-1-3.4-3.8v-21.2c0-11.1-8.9-16.5-19.3-16.5
				c-8,0-12.3,1-20.9,4.4l-1.9,11.2l11.1,1.2l1.6-5.5c2.3-1.2,4.5-1.4,7.5-1.4c7.9,0,8,5.9,8,10.9v1.6c-2.5-0.3-5.3-0.4-8-0.4
				c-11.1,0-22.7,2.8-22.7,14.8c0,10.2,8,14,15,14c7.9,0,12.9-4.8,15.7-9.7c0.6,5.9,4.2,9.7,10.7,9.7c3,0,6.2-0.9,8.7-2.3
				L511.9,233.9z M482,233.6c-4.2,0-5.7-2.5-5.7-5.6c0-5.3,4.3-6.7,9.3-6.7c2.3,0,4.8,0.3,7,0.6C492.3,230,487,233.6,482,233.6z
				 M463.3,168.1l-21.1,74.4h-13.7l21.1-74.4H463.3z M435,168.1l-21.1,74.4h-13.7l21.1-74.4H435L435,168.1z M376.4,193.7H391v17.5
				h-14.6V193.7z M376.4,224.9H391v17.5h-14.6V224.9z M355.2,224.3l11,1.1l-3,17.1h-42.6l-1.4-7.3l26.8-30.8h-15.2l-2.2,7.6
				l-10.1-1.1l1.7-17.1h42.8l1.1,7.3l-27,30.8h15.8L355.2,224.3z M285.3,192.7c-17.5,0-26.2,11.8-26.2,26
				c0,16.3,11.3,25.5,27.4,24.7c13.6-0.7,24.8-11.7,24.8-25.4C311.4,204.5,302.8,192.7,285.3,192.7z M285,232.8
				c-7.6,0-11.5-6.5-11.5-14.9c0-9.2,4.4-14.5,11.6-14.5c6.6,0,11.9,4.4,11.9,14.3C297,227,292.3,232.8,285,232.8z M246.6,231.8h6.5
				v10.6h-20.4V215c0-8.4-2.8-11.7-8.3-11.7c-6.7,0-9.4,4.8-9.4,11.6v17h6.5v10.6H201V215c0-8.4-2.8-11.7-8.3-11.7
				c-6.7,0-9.4,4.8-9.4,11.6v17h9.3v10.6h-29.7v-10.6h6.5v-27.6h-6.5v-10.6h20.4v7.3c2.9-5.2,8-8.3,14.8-8.3c7,0,13.5,3.4,15.9,10.5
				c2.7-6.5,8.2-10.5,15.9-10.5c8.7,0,16.8,5.3,16.8,16.9L246.6,231.8L246.6,231.8z"/>
		</g>
	</g>
	<g id="XMLID_33_">
		<path class="st0" d="M219.3,125.8v-18.1h12.6l-6.3-17h-46.3l-6.7,17h13.9v18.1h-46.9v-18.1H151L188.4,20h-18.1V1.9h39.8
			l44.6,105.8h12v18.1H219.3z M203.6,32.2h-1.1l-17.1,43.1h34.5L203.6,32.2z"/>
		<path class="st0" d="M310.2,127.7c-24.4,0-41.3-15.1-41.3-43.3c0-27.8,17.5-45.9,43.1-45.9c10.1,0,20.4,2.3,30.3,8.2l3.4,24
			l-16.4,1.7l-2.9-14.1c-4.8-2.3-9.7-3.4-14.9-3.4c-13.5,0-21.3,10.3-21.3,28.6c0,17.5,7.4,27.8,21.9,27.8
			c11.2,0,17.1-6.5,19.2-19.4l17.1,3.2C346.6,110.3,336.1,127.7,310.2,127.7z"/>
		<path class="st0" d="M397.1,127.7c-18.3,0-29.9-10.1-29.9-27.4v-45h-12.6V40.2h12.6V13.7h20.4v26.5h31.8v15.1h-31.8V97
			c0,9.1,4.2,13.5,11.8,13.5c4.4,0,10.9-1.5,12.8-14.7l15.1,4.8C424.7,119.1,414,127.7,397.1,127.7z"/>
		<path class="st0" d="M432.9,125.8v-15.6h12.8V56h-13.5V40.2h33.7v69.9h12.8v15.6H432.9z M444.5,0h20.8v22.5h-20.8V0z"/>
		<path class="st0" d="M568,55.8l-30.7,69.9h-14.9L490,55.8h-9.5V40.2h41.9v15.6H512l19.2,43.4h1.1l16-43.4h-9.5V40.2h38.5v15.6H568
			z"/>
		<path class="st0" d="M626.9,38.5c19.1,0,32.8,9.5,32.8,29v38.5c0,5.5,1.9,7.6,6.3,7.6c1.3,0,3-0.4,4.4-0.8l0.2,11.2
			c-4,2.3-9,3.6-13.7,3.6c-10.9,0-16.8-6.7-17.5-17v-0.4c-5.1,9-14.3,17.3-28,17.3c-12,0-26.3-6.3-26.3-24.4
			c0-21.2,20.4-25.9,39.8-25.9c5,0,10.1,0.2,14.5,0.8v-4.8c0-10.1-1.7-19.8-16-19.8c-5.3,0-9.9,0.6-14.3,2.9l-3.4,13.1l-16.4-1.7
			l3.6-21.3C605.5,40.4,613.9,38.5,626.9,38.5z M639.2,88.8c-4.4-0.6-9-1.1-13.7-1.1c-10.1,0-19.6,2.7-19.6,13.3
			c0,7.6,5,11.6,12.4,11.6c9.7,0,20-7.1,21-20.8V88.8z"/>
		<path class="st0" d="M717.9,127.7c-18.3,0-29.9-10.1-29.9-27.4v-45h-12.6V40.2H688V13.7h20.4v26.5h31.8v15.1h-31.8V97
			c0,9.1,4.2,13.5,11.8,13.5c4.4,0,10.9-1.5,12.8-14.7l15.1,4.8C745.6,119.1,734.9,127.7,717.9,127.7z"/>
		<path class="st0" d="M795.3,127.7c-25,0-42.7-14.9-42.7-43.3c0-26.3,15.4-45.9,41.5-45.9c23.6,0,38.5,15.8,38.7,37.3
			c0,3.6-0.4,7.4-1.1,11.4H774c1.1,15.4,8.8,24,22.9,24c13.1,0,18.1-7.6,19.8-14.9l17,3.2C832.1,114.7,818.6,127.7,795.3,127.7z
			 M794,53.5c-12.2,0-18.3,9.1-19.8,21.2h37.7C813,64.6,807.5,53.5,794,53.5z"/>
	</g>
	<g>
		<g id="Red_Square">
			<rect y="1.8" class="st2" width="123.4" height="123.4"/>
		</g>
	</g>
	<g>
		<path class="st1" d="M46.3,92.7c-3.4-0.5-6.7-2-9.4-4.7c-2.6-2.6-4.2-5.9-4.7-9.4c-0.2-1.4-2-2.1-3-1c0,0,0,0,0,0
			c-9.7,9.7-9.6,21.6-9.2,25.7c0.1,0.9,0.8,1.5,1.6,1.6c4.1,0.4,16,0.5,25.7-9.2c0,0,0,0,0,0C48.4,94.7,47.8,92.9,46.3,92.7z"/>
		<path class="st1" d="M79.2,94.6c2.3-3.1,3.2-10,2.2-16.3c1.2-1.1,2.5-2.3,3.7-3.5c20-20,18.4-44.9,17.7-51
			c-0.1-0.8-0.8-1.5-1.6-1.6c-6.1-0.7-31-2.3-51,17.7c-1.2,1.2-2.4,2.5-3.5,3.7c-6.3-0.9-13.2-0.1-16.3,2.2c-2.2,1.7-6.4,6-8.9,8.7
			c-0.9,1-0.5,2.7,0.9,3L35,60.8c-1,2.1-1.9,4.2-2.6,6.2c-0.2,0.7-0.1,1.4,0.4,1.9l23.3,23.3c0.5,0.5,1.2,0.7,1.9,0.4
			c2-0.7,4.1-1.6,6.2-2.6l3.2,12.6c0.3,1.3,2,1.8,3,0.9C73.1,101,77.5,96.8,79.2,94.6z M69,56c-3.9-3.9-3.9-10.3,0-14.2
			s10.3-3.9,14.2,0c3.9,3.9,3.9,10.3,0,14.2C79.3,59.9,72.9,59.9,69,56z"/>
	</g>
</g>
</svg>
