<svg width="815" height="266" viewBox="0 0 815 266" xmlns="http://www.w3.org/2000/svg">
  <g fill="#FFFFFF" fill-rule="nonzero">
    <path d="M120.7 265.3h389.7V153.9H120.7v111.4zm326.6-68.2c8.6-3.4 12.9-4.4 20.9-4.4 10.5 0 19.3 5.4 19.3 16.5v21.2c0 2.8 1.1 3.8 3.4 3.8.6 0 1.3-.1 2-.3l.1 7.3c-2.6 1.4-5.7 2.3-8.7 2.3-6.5 0-10.1-3.8-10.7-9.7-2.8 5-7.8 9.7-15.7 9.7-7 0-15-3.8-15-14 0-12 11.6-14.8 22.7-14.8 2.7 0 5.5.1 8 .4v-1.6c0-5-.1-10.9-8-10.9-2.9 0-5.2.2-7.5 1.4l-1.6 5.5-11.1-1.2 1.9-11.2zm-3-29l-21.1 74.4h-13.7l21.1-74.4h13.7zm-42.1 0H416l-21.1 74.4h-13.7l21-74.4zm-44.8 25.6H372v17.5h-14.6v-17.5zm0 31.2H372v17.5h-14.6v-17.5zm-56.1-31.2h42.8l1.1 7.3-27 30.8H334l2.3-7.6 11 1.1-3 17.1h-42.6l-1.4-7.3 26.8-30.8h-15.2l-2.2 7.6-10.1-1.1 1.7-17.1zm-35-1c17.5 0 26 11.8 26 25.4 0 13.6-11.2 24.6-24.8 25.4-16.1.9-27.4-8.4-27.4-24.7.1-14.3 8.7-26.1 26.2-26.1zm-122.4 39.1h6.5v-27.6h-6.5v-10.6h20.4v7.3c2.9-5.2 8-8.3 14.8-8.3 7 0 13.5 3.4 15.9 10.5 2.7-6.5 8.2-10.5 15.9-10.5 8.7 0 16.8 5.3 16.8 16.9v22.3h6.5v10.6h-20.4V215c0-8.4-2.8-11.7-8.3-11.7-6.7 0-9.4 4.8-9.4 11.6v17h6.5v10.6H182V215c0-8.4-2.8-11.7-8.3-11.7-6.7 0-9.4 4.8-9.4 11.6v17h9.3v10.6h-29.7v-10.7z"/>
    <path d="M266 232.8c7.2 0 12-5.8 12-15.1 0-9.8-5.3-14.3-11.9-14.3-7.2 0-11.6 5.3-11.6 14.5.1 8.4 4 14.9 11.5 14.9zM457.3 227.9c0 3.1 1.5 5.6 5.7 5.6 5 0 10.3-3.6 10.6-11.7-2.3-.3-4.8-.6-7-.6-5 0-9.3 1.4-9.3 6.7zM167.5 107.7h-13.9l6.7-17h46.3l6.3 17h-12.6v18.1h47.4v-18.1h-12L191.1 1.9h-39.8V20h18.1L132 107.7h-11.4v18.1h46.9v-18.1zm16-75.5h1.1l16.2 43.1h-34.5l17.2-43.1zM291.2 127.7c25.9 0 36.4-17.3 38.3-32.6l-17.1-3.2c-2.1 13-8 19.4-19.2 19.4-14.5 0-21.9-10.3-21.9-27.8 0-18.3 7.8-28.6 21.3-28.6 5.1 0 10.1 1.1 14.9 3.4l2.9 14.1 16.4-1.7-3.4-24c-9.9-5.9-20.2-8.2-30.3-8.2-25.5 0-43.1 18.1-43.1 45.9-.2 28.2 16.8 43.3 41.2 43.3zM348.1 100.2c0 17.3 11.6 27.4 29.9 27.4 17 0 27.6-8.6 30.1-27.1L393 95.7c-1.9 13.1-8.4 14.7-12.8 14.7-7.6 0-11.8-4.4-11.8-13.5V55.3h31.8V40.2h-31.8V13.7H348v26.5h-12.6v15.1H348v44.9h.1zM425.5 0h20.8v22.5h-20.8zM426.6 110.1h-12.7v15.7h45.7v-15.7h-12.8V40.2h-33.7V56h13.5zM519.8 55.8h9.6l-16.1 43.5h-1.1L493 55.8h10.4V40.2h-41.9v15.6h9.5l32.4 70h14.9l30.7-70h9.3V40.2h-38.5zM646.9 113.6c-4.4 0-6.3-2.1-6.3-7.6V67.5c0-19.4-13.7-29-32.8-29-13 0-21.3 1.9-34.1 8l-3.6 21.3 16.4 1.7 3.4-13.1c4.4-2.3 9-2.9 14.3-2.9 14.3 0 16 9.7 16 19.8v4.8c-4.4-.6-9.5-.8-14.5-.8-19.4 0-39.8 4.8-39.8 25.9 0 18.1 14.3 24.4 26.3 24.4 13.7 0 22.9-8.4 28-17.3v.4c.8 10.3 6.7 17 17.5 17 4.8 0 9.7-1.3 13.7-3.6l-.2-11.2c-1.2.3-2.9.7-4.3.7zm-26.7-21.8c-1 13.7-11.2 20.8-21 20.8-7.4 0-12.4-4-12.4-11.6 0-10.7 9.5-13.3 19.6-13.3 4.8 0 9.3.6 13.7 1.1v3h.1zM701.2 110.5c-7.6 0-11.8-4.4-11.8-13.5V55.3h31.8V40.2h-31.8V13.7H669v26.5h-12.6v15.1H669v45c0 17.3 11.6 27.4 29.9 27.4 17 0 27.6-8.6 30.1-27.1l-15-4.8c-1.9 13.2-8.4 14.7-12.8 14.7zM797.7 96.4c-1.7 7.2-6.7 14.9-19.8 14.9-14.1 0-21.7-8.6-22.9-24h57.7c.8-4 1.1-7.8 1.1-11.4-.2-21.5-15.1-37.3-38.7-37.3-26.1 0-41.5 19.6-41.5 45.9 0 28.4 17.7 43.3 42.7 43.3 23.2 0 36.8-13 38.3-28l-16.9-3.4zM775 53.5c13.5 0 19.1 11.1 17.9 21.2h-37.7c1.5-12 7.6-21.2 19.8-21.2zM2.5 54.6c2.5-2.7 6.7-7.1 8.9-8.7 3.1-2.3 10-3.2 16.3-2.2 1.1-1.2 2.3-2.5 3.5-3.7 20-20 44.9-18.4 51-17.7.8.1 1.5.8 1.6 1.6.7 6.1 2.3 31-17.7 51-1.2 1.2-2.5 2.4-3.7 3.5.9 6.3.1 13.2-2.2 16.3-1.7 2.2-6 6.4-8.7 8.9-1 .9-2.7.5-3-.9L45.2 90c-2.1 1-4.2 1.9-6.2 2.6-.7.2-1.4.1-1.9-.4L13.8 68.9c-.5-.5-.7-1.2-.4-1.9.7-2 1.6-4.1 2.6-6.2L3.4 57.6c-1.4-.4-1.9-2-.9-3zm7.8 23c1.1-1.1 2.8-.4 3 1 .5 3.4 2 6.7 4.7 9.4 2.6 2.6 5.9 4.2 9.4 4.7 1.4.2 2.1 2 1 3-9.7 9.7-21.6 9.6-25.7 9.2-.9-.1-1.5-.8-1.6-1.6-.4-4.1-.5-16 9.2-25.7zM57.1 59c5.578 0 10.1-4.522 10.1-10.1 0-5.578-4.522-10.1-10.1-10.1-5.578 0-10.1 4.522-10.1 10.1C47 54.478 51.522 59 57.1 59z"/>
  </g>
</svg>
