<?xml version="1.0" encoding="utf-8"?>
<!-- Generator: Adobe Illustrator 20.1.0, SVG Export Plug-In . SVG Version: 6.00 Build 0)  -->
<svg version="1.1" id="icon" xmlns="http://www.w3.org/2000/svg" xmlns:xlink="http://www.w3.org/1999/xlink" x="0px" y="0px"
	 viewBox="0 0 150 150" style="enable-background:new 0 0 150 150;" xml:space="preserve">
<style type="text/css">
	.st0{fill:#FFDC4E;}
	.st1{fill:#FFF0B2;}
	.st2{fill:#FFF4CC;}
</style>
<g>
	<g>
		<rect class="st0" width="150" height="150"/>
	</g>
	<g>
		<g>
			<path class="st1" d="M96.3,113.4c-1.9,0-3.5-1-4.5-2.5c-1,1.4-2.6,2.4-4.4,2.4c-2.9,0-5.3-2.4-5.3-5.5V89.2
				c-2.8-0.5-5.3-2.4-5.3-5.9V66.7c0-1.3,0.5-4.2,5.2-4.2h7.4c-3.3-1.1-5.7-4.2-5.7-7.8c0-4.5,3.7-8.2,8.2-8.2s8.2,3.7,8.2,8.2
				c-0.1,3.7-2.5,6.8-5.8,7.8h5.9c1.9,0,5.4,0,5.4,4.4l0.1,17.6h-0.1c-0.4,2.3-1.9,4-4.1,4.7v18.8
				C101.6,110.9,99.2,113.4,96.3,113.4z M89.2,85.5h5.3v22.4c0,1.1,0.8,1.9,1.8,1.9c1,0,1.8-0.8,1.8-1.9V85.8h1.8
				c1.4,0,2.3-0.8,2.4-2.3l-0.1-16.6c0-0.6-0.1-0.8-0.1-0.8c0,0-0.4-0.1-1.7-0.1H82c-1.6,0-1.6,0.3-1.6,0.7v16.6
				c0,2.4,3,2.5,3.5,2.5h1.8v22c0,1.1,0.8,1.9,1.8,1.9c1,0,1.8-0.8,1.8-1.9V85.5z M91.9,50c-2.6,0-4.7,2.1-4.7,4.7
				c0,2.6,2.1,4.7,4.7,4.7c2.5,0,4.6-2.1,4.7-4.8C96.6,52.1,94.5,50,91.9,50z"/>
		</g>
		<g>
			<path class="st1" d="M59.8,123c-1.9,0-3.5-1-4.5-2.5c-0.9,1.5-2.5,2.4-4.4,2.4c-3,0-5.3-2.4-5.3-5.6V98.1
				c-2.9-0.6-5.3-2.7-5.3-6.1v-17c0-4,3.6-4,5-4h9.6c-4.4-0.3-7.8-4-7.8-8.4c0-4.6,3.8-8.4,8.4-8.4c4.7,0,8.4,3.8,8.4,8.4
				c-0.1,4.5-3.6,8.1-7.8,8.4h8c2.1,0,5.4,0,5.4,4.3l0.1,17.9h-0.1c-0.4,2.4-2.1,4.2-4.3,4.8v19.4C65.1,120.5,62.8,123,59.8,123z
				 M52.7,94.1H58v23.3c0,1,0.6,2,1.8,2c1.2,0,1.8-1,1.8-2V94.8h1.8c1.6,0,2.6-1,2.7-2.6l-0.1-16.8c0-0.6-0.1-0.8-0.1-0.8
				c-0.2,0-1.3,0-1.8,0H45.3c-0.9,0-1.2,0.1-1.4,0.1c0,0,0,0.2,0,0.3v17c0,2.7,3.2,2.7,3.5,2.7h1.8v22.6c0,1,0.6,2,1.8,2
				s1.8-1,1.8-2V94.1z M55.5,57.8c-2.7,0-4.9,2.2-4.9,4.9c0,2.7,2.2,4.9,4.9,4.9c2.6,0,4.8-2.2,4.9-4.9C60.4,60,58.2,57.8,55.5,57.8
				z"/>
		</g>
		<path class="st2" d="M75.1,36.4c3.1,0,5.6-2.5,5.6-5.6c0-3.1-2.5-5.6-5.6-5.6c-3.1,0-5.6,2.5-5.6,5.6c0,0.3,0,0.7,0.1,1l-8.8,4.7
			c-1-1-2.4-1.6-3.9-1.6c-3.1,0-5.6,2.5-5.6,5.6c0,3.1,2.5,5.6,5.6,5.6c1.5,0,2.8-0.6,3.8-1.5l5.9,3.2c-0.1,0.3-0.1,0.7-0.1,1
			c0,3.1,2.5,5.6,5.6,5.6c3.1,0,5.6-2.5,5.6-5.6c0-3.1-2.5-5.6-5.6-5.6c-1.4,0-2.8,0.6-3.8,1.5l-5.9-3.2c0.1-0.3,0.1-0.6,0.1-0.9
			c0-0.3,0-0.6-0.1-0.9l8.8-4.7C72.3,35.9,73.6,36.4,75.1,36.4z M75.1,28.8c1.1,0,2,0.9,2,2c0,1.1-0.9,2-2,2s-2-0.9-2-2
			C73.1,29.7,74,28.8,75.1,28.8z M56.9,42.6c-1.1,0-2-0.9-2-2c0-1.1,0.9-2,2-2s2,0.9,2,2C59,41.7,58.1,42.6,56.9,42.6z M72.2,50.9
			c-1.1,0-2-0.9-2-2c0-1.1,0.9-2,2-2s2,0.9,2,2C74.2,50,73.3,50.9,72.2,50.9z"/>
	</g>
</g>
</svg>
