<?xml version="1.0" encoding="utf-8"?>
<!-- Generator: Adobe Illustrator 20.1.0, SVG Export Plug-In . SVG Version: 6.00 Build 0)  -->
<svg version="1.1" id="icon" xmlns="http://www.w3.org/2000/svg" xmlns:xlink="http://www.w3.org/1999/xlink" x="0px" y="0px"
	 viewBox="0 0 150 150" style="enable-background:new 0 0 150 150;" xml:space="preserve">
<style type="text/css">
	.st0{fill:#475682;}
	.st1{fill:#6F80AD;}
</style>
<g>
	<rect class="st0" width="150" height="150"/>
	<g>
		<g>
			<path class="st1" d="M48.9,101.9c-0.1,0-0.3,0-0.4,0c-1.2,0-2.4-0.2-3.5-0.5l-3.4-1l12.2-11.6l-2.1-8.9l-9.2-2.6l-12,11.3
				l-0.8-3.4c-1.3-5.6,0.9-11.2,6.4-16.7c3.8-3.6,8.4-5.4,13.4-5.2c2.9,0.1,5.8,0.8,8.2,2.1l0,0l26.5-25.1l0.4-0.1
				c2.7-1,4.8-0.7,6.1,0.7l1.9,2c0.8,0.9,1.2,2,1.1,3.2c-0.1,1.1-0.6,2.1-1.5,2.9L66.1,74l0,0c3.6,7.4,2,16.1-4,21.8
				C57.9,99.8,53.3,101.9,48.9,101.9z M41.4,72.9l13.7,3.8l3.1,13.5l-8,7.6c3-0.4,6.1-2,9.1-4.9c4.7-4.5,6-11.3,3.2-17.1l-1.3-2.7
				l28.5-26.9c0.2-0.2,0.3-0.4,0.3-0.4l-1.9-2h0c0,0-0.4-0.1-1.5,0.2l-28,26.5L55.9,69c-1.8-1-4.1-1.6-6.4-1.7
				c-3.9-0.1-7.5,1.3-10.5,4.1c-3.1,3-4.9,6-5.4,8.9L41.4,72.9z"/>
		</g>
		<path class="st1" d="M98.5,66.2c-12.2,0-22.1,9.9-22.1,22.1c0,12.2,9.9,22.1,22.1,22.1c12.2,0,22.1-9.9,22.1-22.1
			C120.6,76.1,110.7,66.2,98.5,66.2z M115.1,79.2h-4.8c-0.8-3.1-2-5.8-3.5-7.9C110.4,73,113.3,75.8,115.1,79.2z M117.5,88.3
			c0,1.8-0.3,3.5-0.7,5.1h-5.6c0.2-1.6,0.4-3.4,0.4-5.1c0-2.1-0.2-4.1-0.5-6h5.5C117.1,84.2,117.5,86.2,117.5,88.3z M79.6,88.3
			c0-2.1,0.4-4.1,1-6H86c-0.3,1.9-0.5,3.9-0.5,6c0,1.8,0.1,3.5,0.4,5.1h-5.6C79.8,91.8,79.6,90,79.6,88.3z M88.7,88.3
			c0-2.1,0.2-4.1,0.5-6H97v11.1h-7.9C88.8,91.8,88.7,90,88.7,88.3z M100.1,69.6c3,1,5.6,4.6,7,9.6h-7V69.6z M97,69.6v9.6h-7
			C91.4,74.2,94,70.5,97,69.6z M97,96.5v10.4c-3.2-1-5.9-5-7.3-10.4H97z M100.1,106.9V96.5h7.3C106,101.9,103.2,105.9,100.1,106.9z
			 M100.1,93.4V82.3h7.8c0.3,1.9,0.5,3.9,0.5,6c0,1.8-0.1,3.5-0.4,5.1H100.1z M90.2,71.3c-1.5,2.1-2.7,4.8-3.5,7.9h-4.8
			C83.8,75.8,86.7,73,90.2,71.3z M81.5,96.5h5c0.8,3.4,2.1,6.4,3.7,8.7C86.4,103.4,83.3,100.3,81.5,96.5z M106.9,105.2
			c1.6-2.3,2.9-5.3,3.7-8.7h5C113.7,100.3,110.7,103.4,106.9,105.2z"/>
	</g>
</g>
</svg>
