<?xml version="1.0" encoding="utf-8"?>
<!-- Generator: Adobe Illustrator 20.1.0, SVG Export Plug-In . SVG Version: 6.00 Build 0)  -->
<svg version="1.1" id="icon" xmlns="http://www.w3.org/2000/svg" xmlns:xlink="http://www.w3.org/1999/xlink" x="0px" y="0px"
	 viewBox="0 0 150 150" style="enable-background:new 0 0 150 150;" xml:space="preserve">
<style type="text/css">
	.st0{fill:#3BB997;}
	.st1{fill:#90D3BE;}
</style>
<g>
	<rect class="st0" width="150" height="150"/>
	<path class="st1" d="M118.9,46.3l-19.1,0c-0.1-4.8-2.4-8.2-6.9-8.2l-8,0c-6.5,0-15,0-20.6,0c-3.6,0-7.4,2.2-7.4,7.1v1.1l-20.3,0
		L23,52.4l13.5,6.2H55c-1.5,2.5-3,5.4-3.2,6v7.2l11.9,11.1V116h27.4l0-33.4c1.8-3.1,5.5-9.7,6.1-10.6c0,0,2.4-3.8,2.4-5.8v-7.9
		l18.8,0c2.5,0,7-0.2,7-3.5v-5.1C125.5,46.6,121.4,46.3,118.9,46.3z M81,41.6c1.4,0,5.8,0,5.8,0v17c-0.2,2.1-1.3,3.3-3,3.3
		c-1.6,0-3.1-1.6-2.8-3.3V41.6z M70.7,41.6l6.8,0v9.8h-6.9C70.7,45.9,70.7,41.6,70.7,41.6z M60.5,45.1c0-3.1,2.3-3.6,3.7-3.6
		c0.9,0,1.9,0,2.9,0c0,2.1,0,6.1-0.1,9.8h-6.6V45.1z M36.9,49.8h20.1v5.1H36.9V49.8z M96.2,66.6c-0.2,0.8-1.3,2.7-1.5,2.9
		c-0.9,1.4-7,12.1-7,12.1l0,30.8H67.3V81.3L55.4,70.2v-5.5c0-0.6,3.4-6.1,6.2-9.9h14v1.8c0,0.9-0.3,1.6-2.5,1.6h-6.9L66,61.8
		c0.5,0.1,12.2,2.2,12.2,14.9h3.6c0-7.6-3.6-12.2-7.3-14.9c1.6,0,2.6-0.4,3.3-1c0.9,2.7,3.3,4.6,6.1,4.6c1.9,0,3.5-0.8,4.7-2.1
		c1.2,1.3,2.6,2.2,4.5,2.2c1,0,2-0.3,3.1-0.7V66.6z M96.2,58.6c-0.2,2-1.4,3.4-3,3.4c-2,0-2.9-2.2-2.9-3.3c0-4.2,0-17,0-17l2.7,0
		c3.1,0,2.9,3,3.1,4.8V58.6z M107.8,54.8h-8v-5.1h8V54.8z M114.5,54.8H112v-5.1h2.5V54.8z M122.1,54.5c-0.8,0.1-1.7,0.3-3.4,0.3
		v-5.1c1.7,0,2.5,0.2,3.4,0.4V54.5z"/>
</g>
</svg>
