<?xml version="1.0" encoding="UTF-8" standalone="no"?>
<svg
   xmlns:dc="http://purl.org/dc/elements/1.1/"
   xmlns:cc="http://creativecommons.org/ns#"
   xmlns:rdf="http://www.w3.org/1999/02/22-rdf-syntax-ns#"
   xmlns:svg="http://www.w3.org/2000/svg"
   xmlns="http://www.w3.org/2000/svg"
   id="svg1105"
   version="1.1"
   viewBox="0 0 52.916665 52.916668"
   height="200"
   width="200">
  <defs
     id="defs1099" />
  <metadata
     id="metadata1102">
    <rdf:RDF>
      <cc:Work
         rdf:about="">
        <dc:format>image/svg+xml</dc:format>
        <dc:type
           rdf:resource="http://purl.org/dc/dcmitype/StillImage" />
        <dc:title></dc:title>
      </cc:Work>
    </rdf:RDF>
  </metadata>
  <g
     transform="translate(0,-244.08332)"
     id="layer1">
    <g
       id="g1062"
       transform="matrix(0.22434836,0,0,-0.22434865,-33.449185,437.23898)">
      <path
         id="path108"
         style="fill:#41b5b6;fill-opacity:1;fill-rule:nonzero;stroke:none;stroke-width:0.1"
         d="m 198.093,678.181 -21.951,12.673 c -2.686,1.551 -4.637,4.929 -4.637,8.031 v 99.595 c 0,3.101 1.95,6.479 4.636,8.031 l 86.251,49.795 c 1.292,0.745 2.938,1.156 4.637,1.156 1.698,0 3.344,-0.411 4.636,-1.156 l 86.251,-49.794 c 2.687,-1.552 4.637,-4.93 4.637,-8.032 l -0.005,-99.595 c 0,-3.103 -1.95,-6.481 -4.638,-8.031 l -86.244,-49.795 c -1.293,-0.745 -2.939,-1.156 -4.637,-1.156 -1.699,0 -3.345,0.411 -4.637,1.156 l -27.141,15.67 -36.524,-25.052 -0.634,46.504" />
      <path
         id="path110"
         style="fill:#ffffff;fill-opacity:1;fill-rule:nonzero;stroke:none;stroke-width:0.1"
         d="m 267.029,860.962 c -2.337,0 -4.545,-0.562 -6.387,-1.625 l -86.25,-49.794 c -3.761,-2.173 -6.387,-6.722 -6.387,-11.063 v -99.595 c 0,-4.342 2.627,-8.891 6.387,-11.062 l 20.229,-11.678 0.517,-37.98 0.178,-13.071 10.781,7.394 29.315,20.107 25.23,-14.567 c 1.842,-1.063 4.05,-1.625 6.387,-1.625 2.336,0 4.544,0.562 6.386,1.624 l 86.246,49.796 c 3.761,2.171 6.387,6.72 6.387,11.062 l 0.005,99.594 c 0,4.343 -2.626,8.892 -6.387,11.063 l -86.25,49.795 c -1.843,1.063 -4.051,1.625 -6.387,1.625 z m 0,-7 c 1.046,0 2.093,-0.229 2.887,-0.688 l 86.25,-49.794 c 1.589,-0.917 2.887,-3.167 2.887,-5 l -0.005,-99.595 c 0,-1.833 -1.299,-4.083 -2.887,-5 l -86.245,-49.794 c -0.794,-0.459 -1.841,-0.688 -2.887,-0.688 -1.047,0 -2.093,0.229 -2.887,0.688 l -29.051,16.772 -32.954,-22.602 -0.571,41.957 -23.674,13.667 c -1.587,0.917 -2.887,3.167 -2.887,5 v 99.595 c 0,1.833 1.3,4.083 2.887,5 l 86.25,49.794 c 0.794,0.459 1.84,0.688 2.887,0.688" />
      <path
         id="path112"
         style="fill:#f8e807;fill-opacity:1;fill-rule:nonzero;stroke:none;stroke-width:0.1"
         d="m 274.401,751.427 2.095,1.253 5.173,-10.01 h 7.987 l -8.111,14.449 8.254,11.729 h -7.736 l -5.495,-8.021 c -1.087,-1.529 -1.813,-2.644 -2.167,-3.348 v 11.369 H 267.29 V 742.67 h 7.111 v 8.757" />
      <path
         id="path114"
         style="fill:#f8e807;fill-opacity:1;fill-rule:nonzero;stroke:none;stroke-width:0.1"
         d="m 308.029,748.435 h -8.469 v 4.944 h 7.842 v 5.676 h -7.842 v 4.119 h 8.469 v 5.674 H 292.486 V 742.67 h 15.543 v 5.765" />
      <path
         id="path116"
         style="fill:#f8e807;fill-opacity:1;fill-rule:nonzero;stroke:none;stroke-width:0.1"
         d="m 276.119,731.249 h 6.396 v -20.397 h 7.068 v 20.397 h 6.376 v 5.785 h -19.84 v -5.785" />
      <path
         id="path118"
         style="fill:#f8e807;fill-opacity:1;fill-rule:nonzero;stroke:none;stroke-width:0.1"
         d="m 255.809,768.956 h -2.626 l -1.608,-6.314 c 0.09,-0.382 0.191,-0.799 0.304,-1.26 0.378,-1.514 0.697,-2.751 0.96,-3.708 l 1.13,-4.295 h -4.754 l -1.477,-5.803 h 7.699 l 1.287,-4.906 h 7.735 l -8.65,26.286" />
      <path
         id="path120"
         style="fill:#f8e807;fill-opacity:1;fill-rule:nonzero;stroke:none;stroke-width:0.1"
         d="m 251.119,764.548 c 0.005,0.031 0.012,0.066 0.017,0.095 0.001,-0.004 0.002,-0.011 0.003,-0.016 l 1.102,4.329 h -5.867 l -8.541,-26.286 h 7.717 l 5.569,21.878" />
      <path
         id="path122"
         style="fill:#f8e807;fill-opacity:1;fill-rule:nonzero;stroke:none;stroke-width:0.1"
         d="m 308.715,728.057 -4.141,8.977 h -7.702 l 8.411,-15.789 3.432,6.812" />
      <path
         id="path124"
         style="fill:#f8e807;fill-opacity:1;fill-rule:nonzero;stroke:none;stroke-width:0.1"
         d="m 314.261,737.034 -8.776,-17.415 v -8.767 h 7.126 v 10.226 l 8.617,15.956 h -6.967" />
      <path
         id="path126"
         style="fill:#f8e807;fill-opacity:1;fill-rule:nonzero;stroke:none;stroke-width:0.1"
         d="m 236.896,731.963 c 0.071,0.344 0.126,0.632 0.168,0.862 0.006,-0.036 0.015,-0.079 0.022,-0.117 l 1.129,4.434 h -5.913 l -8.541,-26.29 h 7.761 l 5.374,21.111" />
      <path
         id="path128"
         style="fill:#f8e807;fill-opacity:1;fill-rule:nonzero;stroke:none;stroke-width:0.1"
         d="m 241.738,737.142 h -2.581 l -1.633,-6.413 c 0.085,-0.355 0.179,-0.739 0.284,-1.16 0.375,-1.514 0.694,-2.754 0.957,-3.708 l 1.129,-4.298 h -4.703 l -1.478,-5.801 h 7.65 l 1.289,-4.91 h 7.736 l -8.65,26.29" />
      <path
         id="path130"
         style="fill:#f8e807;fill-opacity:1;fill-rule:nonzero;stroke:none;stroke-width:0.1"
         d="m 319.098,768.848 h -6.483 V 742.67 h 6.382 l 0.101,26.178" />
      <path
         id="path132"
         style="fill:#f8e807;fill-opacity:1;fill-rule:nonzero;stroke:none;stroke-width:0.1"
         d="m 327.424,754.076 c 2.961,1.66 4.439,4.005 4.439,7.038 0,5.159 -3.556,7.734 -10.672,7.734 h -1.182 l -0.021,-5.353 h 1.094 c 2.425,0 3.638,-0.898 3.638,-2.705 0,-2.182 -1.24,-3.277 -3.708,-3.277 h -1.047 l -0.021,-5.317 h 1.535 l 5.55,-9.526 h 8.024 l -7.629,11.406" />
      <path
         id="path134"
         style="fill:#f8e807;fill-opacity:1;fill-rule:nonzero;stroke:none;stroke-width:0.1"
         d="m 225.583,768.848 -5.315,-18.457 1.972,-7.721 h 1.104 l 5.285,18.82 h 0.159 c -0.141,-2.839 -0.223,-4.626 -0.242,-5.355 -0.015,-0.727 -0.026,-1.389 -0.026,-1.989 V 742.67 h 6.502 v 26.178 h -9.439" />
      <path
         id="path136"
         style="fill:#f8e807;fill-opacity:1;fill-rule:nonzero;stroke:none;stroke-width:0.1"
         d="m 216.612,742.67 h 4.687 l -6.686,26.178 h -9.409 V 742.67 h 6.268 v 11.371 c 0,1.778 -0.123,4.274 -0.374,7.487 h 0.162 l 5.352,-18.858" />
      <path
         id="path138"
         style="fill:#f8e807;fill-opacity:1;fill-rule:nonzero;stroke:none;stroke-width:0.1"
         d="m 260.046,737.034 h -6.83 v -26.182 h 6.731 l 0.099,26.182" />
      <path
         id="path140"
         style="fill:#f8e807;fill-opacity:1;fill-rule:nonzero;stroke:none;stroke-width:0.1"
         d="m 268.022,722.261 c 2.963,1.66 4.443,4.005 4.443,7.037 0,5.157 -3.558,7.736 -10.669,7.736 h -0.839 l -0.02,-5.355 h 0.75 c 2.423,0 3.634,-0.9 3.634,-2.7 0,-2.186 -1.234,-3.281 -3.706,-3.281 h -0.7 l -0.021,-5.315 h 1.187 l 5.55,-9.531 h 8.023 l -7.632,11.409" />
      <path
         id="path142"
         style="fill:#f8e807;fill-opacity:1;fill-rule:nonzero;stroke:none;stroke-width:0.1"
         d="m 211.879,737.034 h -6.675 v -26.182 h 6.573 l 0.102,26.182" />
      <path
         id="path144"
         style="fill:#f8e807;fill-opacity:1;fill-rule:nonzero;stroke:none;stroke-width:0.1"
         d="m 221.716,734.868 c -1.66,1.444 -4.143,2.166 -7.45,2.166 h -1.472 l -0.023,-5.714 h 1.334 c 1.955,0 2.939,-0.88 2.939,-2.648 0,-1.05 -0.316,-1.874 -0.942,-2.469 -0.627,-0.598 -1.471,-0.898 -2.533,-0.898 h -0.822 l -0.021,-5.764 h 1.54 c 3.178,0 5.626,0.795 7.351,2.39 1.725,1.593 2.59,3.854 2.59,6.778 0,2.66 -0.831,4.717 -2.491,6.159" />
      <path
         id="path146"
         style="fill:#f8e807;fill-opacity:1;fill-rule:nonzero;stroke:none;stroke-width:0.1"
         d="m 207.574,786.415 c 0.21,-0.325 0.303,-0.615 0.421,-1.226 0.823,0.803 1.839,1.226 2.945,1.226 1.002,0 1.824,-0.325 2.46,-0.987 0.169,-0.167 0.333,-0.382 0.478,-0.591 1.106,1.131 2.095,1.578 3.422,1.578 0.945,0 1.841,-0.281 2.388,-0.753 0.682,-0.59 0.899,-1.3 0.899,-2.951 v -8.595 h -3.071 v 7.979 c 0,1.446 -0.171,1.725 -0.993,1.725 -0.591,0 -1.421,-0.401 -2.102,-1.015 v -8.689 h -2.994 v 7.865 c 0,1.508 -0.219,1.863 -1.099,1.863 -0.584,0 -1.391,-0.303 -2.072,-0.919 v -8.809 h -3.091 v 8.431 c 0,1.745 -0.121,2.499 -0.452,3.092 l 2.861,0.776" />
      <path
         id="path148"
         style="fill:#f8e807;fill-opacity:1;fill-rule:nonzero;stroke:none;stroke-width:0.1"
         d="m 231.888,784.623 c 0.966,-1.133 1.397,-2.454 1.397,-4.414 0,-2.077 -0.476,-3.496 -1.517,-4.676 -0.917,-1.037 -2.123,-1.676 -3.986,-1.676 -3.286,0 -5.428,2.455 -5.428,6.255 0,3.803 2.166,6.33 5.428,6.33 1.724,0 3.069,-0.592 4.106,-1.819 m -5.688,-1.747 c -0.216,-0.64 -0.331,-1.488 -0.331,-2.692 0,-1.391 0.142,-2.434 0.4,-3.046 0.285,-0.66 0.996,-0.991 1.604,-0.991 1.37,0 1.957,1.227 1.957,4.083 0,1.629 -0.213,2.695 -0.636,3.239 -0.303,0.398 -0.797,0.636 -1.366,0.636 -0.757,0 -1.371,-0.471 -1.628,-1.229" />
      <path
         id="path150"
         style="fill:#f8e807;fill-opacity:1;fill-rule:nonzero;stroke:none;stroke-width:0.1"
         d="m 243.461,786.204 v -2.171 l -5.341,-7.72 h 5.549 l -0.756,-2.196 h -8.897 v 1.959 l 5.682,7.909 h -5.208 v 2.219 h 8.971" />
      <path
         id="path152"
         style="fill:#f8e807;fill-opacity:1;fill-rule:nonzero;stroke:none;stroke-width:0.1"
         d="m 248.811,789.533 c 0,-1.087 -0.866,-1.956 -1.959,-1.956 -1.057,0 -1.929,0.869 -1.929,1.956 0,1.085 0.9,1.961 1.982,1.961 1.062,0 1.906,-0.876 1.906,-1.961 z m -0.373,-3.044 v -12.372 h -3.162 v 11.875 l 3.162,0.497" />
      <path
         id="path154"
         style="fill:#f8e807;fill-opacity:1;fill-rule:nonzero;stroke:none;stroke-width:0.1"
         d="m 254.199,788.446 v -9.418 c 0,-2.081 0.025,-2.362 0.215,-2.692 0.12,-0.215 0.376,-0.329 0.639,-0.329 0.114,0 0.182,0 0.354,0.043 l 0.54,-1.887 c -0.54,-0.211 -1.202,-0.329 -1.887,-0.329 -1.349,0 -2.434,0.635 -2.812,1.649 -0.237,0.613 -0.286,0.995 -0.286,2.716 v 9.023 c 0,1.58 -0.042,2.546 -0.16,3.637 l 3.234,0.731 c 0.114,-0.66 0.163,-1.441 0.163,-3.144" />
      <path
         id="path156"
         style="fill:#f8e807;fill-opacity:1;fill-rule:nonzero;stroke:none;stroke-width:0.1"
         d="m 260.76,788.446 v -9.418 c 0,-2.081 0.028,-2.362 0.222,-2.692 0.11,-0.215 0.367,-0.329 0.631,-0.329 0.118,0 0.191,0 0.358,0.043 l 0.54,-1.887 c -0.54,-0.211 -1.203,-0.329 -1.889,-0.329 -1.347,0 -2.435,0.635 -2.812,1.649 -0.241,0.613 -0.28,0.995 -0.28,2.716 v 9.023 c 0,1.58 -0.048,2.546 -0.17,3.637 l 3.232,0.731 c 0.128,-0.66 0.168,-1.441 0.168,-3.144" />
      <path
         id="path158"
         style="fill:#f8e807;fill-opacity:1;fill-rule:nonzero;stroke:none;stroke-width:0.1"
         d="m 265.724,785.755 c 1.176,0.497 2.186,0.708 3.3,0.708 2.036,0 3.425,-0.753 3.902,-2.1 0.157,-0.496 0.231,-0.874 0.215,-2.173 l -0.077,-4.057 v -0.216 c 0,-1.298 0.215,-1.796 1.14,-2.477 l -1.679,-1.941 c -0.738,0.31 -1.398,0.856 -1.705,1.467 -0.232,-0.239 -0.494,-0.469 -0.733,-0.636 -0.587,-0.427 -1.443,-0.664 -2.434,-0.664 -2.691,0 -4.155,1.373 -4.155,3.776 0,2.838 1.965,4.162 5.81,4.162 0.232,0 0.449,0 0.711,-0.027 v 0.493 c 0,1.348 -0.262,1.797 -1.425,1.797 -1.003,0 -2.193,-0.493 -3.489,-1.369 l -1.347,2.267 c 0.641,0.403 1.114,0.638 1.966,0.99 z m 4.101,-6.351 c -2.188,0 -2.955,-0.398 -2.955,-1.844 0,-0.941 0.598,-1.578 1.401,-1.578 0.586,0 1.181,0.308 1.649,0.826 l 0.052,2.596 h -0.147" />
    </g>
  </g>
</svg>
